<?xml version="1.0" encoding="UTF-8" standalone="no"?>
<!-- Created with Inkscape (http://www.inkscape.org/) -->

<svg
   xmlns:dc="http://purl.org/dc/elements/1.1/"
   xmlns:cc="http://creativecommons.org/ns#"
   xmlns:rdf="http://www.w3.org/1999/02/22-rdf-syntax-ns#"
   xmlns:svg="http://www.w3.org/2000/svg"
   xmlns="http://www.w3.org/2000/svg"
   xmlns:sodipodi="http://sodipodi.sourceforge.net/DTD/sodipodi-0.dtd"
   xmlns:inkscape="http://www.inkscape.org/namespaces/inkscape"
   width="87.624901mm"
   height="50.884979mm"
   viewBox="0 0 310.48193 180.30111"
   id="svg2"
   version="1.1"
   inkscape:version="0.91 r13725"
   sodipodi:docname="primary-field-from-lec-notes.svg">
  <defs
     id="defs4">
    <clipPath
       id="clipPath4279"
       clipPathUnits="userSpaceOnUse">
      <path
         style="clip-rule:evenodd"
         inkscape:connector-curvature="0"
         id="path4281"
         d="m 0,-0.2 793.6,0 0,595.2 L 0,595 0,-0.2 Z" />
    </clipPath>
  </defs>
  <sodipodi:namedview
     id="base"
     pagecolor="#ffffff"
     bordercolor="#666666"
     borderopacity="1.0"
     inkscape:pageopacity="0.0"
     inkscape:pageshadow="2"
     inkscape:zoom="1.979899"
     inkscape:cx="163.26392"
     inkscape:cy="93.905533"
     inkscape:document-units="px"
     inkscape:current-layer="layer1"
     showgrid="false"
     fit-margin-top="2"
     fit-margin-left="2"
     fit-margin-bottom="2"
     fit-margin-right="2"
     inkscape:window-width="1920"
     inkscape:window-height="1027"
     inkscape:window-x="0"
     inkscape:window-y="0"
     inkscape:window-maximized="1" />
  <metadata
     id="metadata7">
    <rdf:RDF>
      <cc:Work
         rdf:about="">
        <dc:format>image/svg+xml</dc:format>
        <dc:type
           rdf:resource="http://purl.org/dc/dcmitype/StillImage" />
        <dc:title></dc:title>
      </cc:Work>
    </rdf:RDF>
  </metadata>
  <g
     inkscape:label="Layer 1"
     inkscape:groupmode="layer"
     id="layer1"
     transform="translate(-271.46115,-419.27852)">
    <g
       id="g4285"
       transform="matrix(1.25,0,0,-1.25,-54.571428,844.1122)" />
    <g
       id="g4287"
       transform="matrix(1.25,0,0,-1.25,-54.571428,844.1122)" />
    <g
       id="g4289"
       transform="matrix(1.25,0,0,-1.25,-54.571428,844.1122)">
      <path
         d="m 395,255.8 0,17.6"
         style="fill:none;stroke:#000000;stroke-width:2.99979997;stroke-linecap:square;stroke-linejoin:miter;stroke-miterlimit:7.66129017;stroke-dasharray:none;stroke-opacity:1"
         id="path4291"
         inkscape:connector-curvature="0" />
    </g>
    <path
       d="m 439.17857,491.8622 5.625,11.25 -11.25,0 5.625,-11.25 z"
       style="fill:#000000;fill-opacity:1;fill-rule:evenodd;stroke:none"
       id="path4293"
       inkscape:connector-curvature="0" />
    <g
       id="g4295"
       transform="matrix(1.25,0,0,-1.25,-54.571428,844.1122)">
      <path
         d="m 345.9,289.1 63.8,0 -21.2,-31.2 -63.8,0 21.2,31.2 z"
         style="fill:none;stroke:#99ccff;stroke-width:2.99979997;stroke-linecap:square;stroke-linejoin:miter;stroke-miterlimit:7.66129017;stroke-dasharray:none;stroke-opacity:1"
         id="path4297"
         inkscape:connector-curvature="0" />
    </g>
    <g
       id="g4299"
       transform="matrix(1.25,0,0,-1.25,-54.571428,844.1122)">
      <path
         d="m 320.2,310.9 c 15,0 26.5,-19.5 26.5,-45.1 0,-25.7 -11.5,-45.3 -26.5,-45.3 -15,0 -26.4,19.6 -26.4,45.3 0,25.6 11.4,45.1 26.4,45.1 z"
         style="fill:none;stroke:#000000;stroke-width:2.00929999;stroke-linecap:square;stroke-linejoin:miter;stroke-miterlimit:7.66129017;stroke-dasharray:none;stroke-opacity:1"
         id="path4301"
         inkscape:connector-curvature="0" />
    </g>
    <g
       id="g4303"
       transform="matrix(1.25,0,0,-1.25,-54.571428,844.1122)">
      <path
         d="m 412.6,310.9 c 15,0 26.5,-18.8 26.5,-43.4 0,-24.6 -11.5,-43.4 -26.5,-43.4 -15,0 -26.4,18.8 -26.4,43.4 0,24.6 11.4,43.4 26.4,43.4 z"
         style="fill:none;stroke:#000000;stroke-width:2.00929999;stroke-linecap:square;stroke-linejoin:miter;stroke-miterlimit:7.66129017;stroke-dasharray:none;stroke-opacity:1"
         id="path4305"
         inkscape:connector-curvature="0" />
    </g>
    <g
       id="g4307"
       transform="matrix(1.25,0,0,-1.25,-54.571428,844.1122)">
      <path
         d="m 315.9,319.5 c 19.9,0 35.2,-23.5 35.2,-54.2 0,-30.8 -15.3,-54.3 -35.2,-54.3 -19.9,0 -35.2,23.5 -35.2,54.3 0,30.7 15.3,54.2 35.2,54.2 z"
         style="fill:none;stroke:#000000;stroke-width:2.00929999;stroke-linecap:square;stroke-linejoin:miter;stroke-miterlimit:7.66129017;stroke-dasharray:none;stroke-opacity:1"
         id="path4309"
         inkscape:connector-curvature="0" />
    </g>
    <g
       id="g4311"
       transform="matrix(1.25,0,0,-1.25,-54.571428,844.1122)">
      <path
         d="m 417,319.5 c 20,0 35.2,-23.5 35.2,-54.2 0,-30.8 -15.2,-54.3 -35.2,-54.3 -19.9,0 -35.1,23.5 -35.1,54.3 0,30.7 15.2,54.2 35.1,54.2 z"
         style="fill:none;stroke:#000000;stroke-width:2.00929999;stroke-linecap:square;stroke-linejoin:miter;stroke-miterlimit:7.66129017;stroke-dasharray:none;stroke-opacity:1"
         id="path4313"
         inkscape:connector-curvature="0" />
    </g>
    <g
       id="g4315"
       transform="matrix(1.25,0,0,-1.25,-54.571428,844.1122)">
      <path
         d="m 311.4,328.3 c 25,0 44,-27.3 44,-63 0,-35.7 -19,-63 -44,-63 -24.9,0 -43.9,27.3 -43.9,63 0,35.7 19,63 43.9,63 z"
         style="fill:none;stroke:#000000;stroke-width:2.00929999;stroke-linecap:square;stroke-linejoin:miter;stroke-miterlimit:7.66129017;stroke-dasharray:none;stroke-opacity:1"
         id="path4317"
         inkscape:connector-curvature="0" />
    </g>
    <g
       id="g4319"
       transform="matrix(1.25,0,0,-1.25,-54.571428,844.1122)">
      <path
         d="m 421.4,328.3 c 24.9,0 44,-27.3 44,-63 0,-35.7 -19.1,-63 -44,-63 -24.9,0 -43.9,27.3 -43.9,63 0,35.7 19,63 43.9,63 z"
         style="fill:none;stroke:#000000;stroke-width:2.00929999;stroke-linecap:square;stroke-linejoin:miter;stroke-miterlimit:7.66129017;stroke-dasharray:none;stroke-opacity:1"
         id="path4321"
         inkscape:connector-curvature="0" />
    </g>
    <g
       id="g4323"
       transform="matrix(1.25,0,0,-1.25,-54.571428,844.1122)">
      <path
         d="m 339.5,254.2 0,17.7"
         style="fill:none;stroke:#000000;stroke-width:2.99979997;stroke-linecap:square;stroke-linejoin:miter;stroke-miterlimit:7.66129017;stroke-dasharray:none;stroke-opacity:1"
         id="path4325"
         inkscape:connector-curvature="0" />
    </g>
    <path
       d="m 369.80357,493.7372 5.625,11.25 -11.25,0 5.625,-11.25 z"
       style="fill:#000000;fill-opacity:1;fill-rule:evenodd;stroke:none"
       id="path4327"
       inkscape:connector-curvature="0" />
    <g
       id="g4329"
       transform="matrix(1.25,0,0,-1.25,-54.571428,844.1122)">
      <path
         d="m 302.7,278 0,-17.7"
         style="fill:none;stroke:#000000;stroke-width:2.99979997;stroke-linecap:square;stroke-linejoin:miter;stroke-miterlimit:7.66129017;stroke-dasharray:none;stroke-opacity:1"
         id="path4331"
         inkscape:connector-curvature="0" />
    </g>
    <path
       d="m 323.80357,529.2372 -5.625,-11.25 11.25,0 -5.625,11.25 z"
       style="fill:#000000;fill-opacity:1;fill-rule:evenodd;stroke:none"
       id="path4333"
       inkscape:connector-curvature="0" />
    <g
       id="g4335"
       transform="matrix(1.25,0,0,-1.25,-54.571428,844.1122)">
      <path
         d="m 429.5,280.3 0,-17.7"
         style="fill:none;stroke:#000000;stroke-width:2.99979997;stroke-linecap:square;stroke-linejoin:miter;stroke-miterlimit:7.66129017;stroke-dasharray:none;stroke-opacity:1"
         id="path4337"
         inkscape:connector-curvature="0" />
    </g>
    <path
       d="m 482.30357,526.3622 -5.625,-11.25 11.25,0 -5.625,11.25 z"
       style="fill:#000000;fill-opacity:1;fill-rule:evenodd;stroke:none"
       id="path4339"
       inkscape:connector-curvature="0" />
    <g
       id="g4341"
       transform="matrix(1.25,0,0,-1.25,-54.935181,844.1122)">
      <text
         transform="matrix(1,0,0,-1,459.8,316.1)"
         style="font-variant:normal;font-weight:bold;font-size:10px;font-family:Verdana;-inkscape-font-specification:Verdana-Bold;writing-mode:lr-tb;fill:#3333cc;fill-opacity:1;fill-rule:nonzero;stroke:none"
         id="text4343">
        <tspan
           x="0 6.9899998 11.89 15.29 25.790001 32.389999 37.380001"
           sodipodi:role="line"
           id="tspan4345"
           y="0">primary</tspan>
        <tspan
           x="0 6.9899998 11.89 15.29 25.790001 32.389999 37.380001"
           y="0"
           sodipodi:role="line"
           id="tspan4550" />
      </text>
    </g>
    <g
       id="g4347"
       transform="matrix(1.25,0,0,-1.25,-54.571428,844.1122)">
      <text
         transform="matrix(1,0,0,-1,334.8,326.6)"
         style="font-variant:normal;font-weight:bold;font-size:10px;font-family:Verdana;-inkscape-font-specification:Verdana-Bold;writing-mode:lr-tb;fill:#3333cc;fill-opacity:1;fill-rule:nonzero;stroke:none"
         id="text4349">
        <tspan
           x="0 4.5 9.3999996 16 23.1 29 39.59 42.889999 47.48 51.98 58.580002"
           y="0"
           sodipodi:role="line"
           id="tspan4351">transmitter</tspan>
      </text>
    </g>
    <g
       id="g4353"
       transform="matrix(1.25,0,0,-1.25,-54.571428,844.1122)">
      <text
         transform="matrix(1,0,0,-1,354.6,314.6)"
         style="font-variant:normal;font-weight:bold;font-size:10px;font-family:Verdana;-inkscape-font-specification:Verdana-Bold;writing-mode:lr-tb;fill:#3333cc;fill-opacity:1;fill-rule:nonzero;stroke:none"
         id="text4355">
        <tspan
           x="0 3.4000001 10.2 17"
           y="0"
           sodipodi:role="line"
           id="tspan4357">loop</tspan>
      </text>
    </g>
    <g
       id="g4359"
       transform="matrix(1.25,0,0,-1.25,-54.571428,844.1122)">
      <path
         d="m 327,257.9 61.5,0"
         style="fill:none;stroke:#99ccff;stroke-width:2.99979997;stroke-linecap:square;stroke-linejoin:miter;stroke-miterlimit:7.66129017;stroke-dasharray:none;stroke-opacity:1"
         id="path4361"
         inkscape:connector-curvature="0" />
    </g>
    <text
       xml:space="preserve"
       style="font-style:normal;font-variant:normal;font-weight:normal;font-stretch:normal;font-size:20.00000191px;line-height:125%;font-family:Verdana;-inkscape-font-specification:Verdana;letter-spacing:0px;word-spacing:0px;fill:#000000;fill-opacity:1;stroke:none;stroke-width:1px;stroke-linecap:butt;stroke-linejoin:miter;stroke-opacity:1;"
       x="526.65094"
       y="467.37589"
       id="text4554"
       sodipodi:linespacing="125%"><tspan
         sodipodi:role="line"
         id="tspan4556"
         x="526.65094"
         y="467.37589" /></text>
    <text
       xml:space="preserve"
       style="font-style:normal;font-variant:normal;font-weight:bold;font-stretch:normal;font-size:12.50000095px;line-height:125%;font-family:Sans;-inkscape-font-specification:'Sans Bold';letter-spacing:0px;word-spacing:0px;fill:#3333cc;fill-opacity:1;stroke:none;stroke-width:1px;stroke-linecap:butt;stroke-linejoin:miter;stroke-opacity:1"
       x="520.58997"
       y="462.95648"
       id="text4558"
       sodipodi:linespacing="125%"><tspan
         sodipodi:role="line"
         id="tspan4560"
         x="520.58997"
         y="462.95648">field</tspan></text>
  </g>
</svg>
